<svg width="260" height="247" viewBox="0 0 260 247" fill="none" xmlns="http://www.w3.org/2000/svg">
<path d="M10.4394 25.2732L249.972 22.8583L231.997 362.601H37.4229L10.4394 25.2732Z" fill="#EB4B4B"/>
<path d="M10.4394 22.9803L249.972 22.8583L249.002 42.5398L11.7534 42.3649L10.4394 22.9803Z" fill="#DD4848"/>
<path d="M22.5423 176.556C108.523 181.359 156.552 181.504 241.86 176.537L241.713 179.537C156.215 184.229 108.279 184.036 22.781 179.537L22.5423 176.556Z" fill="#DD4848"/>
<rect x="0.411621" y="0.903931" width="259.588" height="25.9787" rx="12.9893" fill="white"/>
<path d="M14.1536 71.6311C105.578 76.4336 156.649 76.5794 247.358 71.6124L247.202 74.6124C156.29 79.3041 105.319 79.1107 14.4074 74.6124L14.1536 71.6311Z" fill="#DD4848"/>
<path d="M15.5569 89.1485C106.089 93.9041 156.662 94.0484 246.486 89.1299L246.331 92.1006C156.307 96.7466 105.833 96.555 15.8082 92.1006L15.5569 89.1485Z" fill="#DD4848"/>
</svg>
